# xmcd CD database file
#
# Track frame offsets:
#	150
#	22226
#	44035
#	80764
#	106250
#	136520
#	169181
#	193406
#
# Disc length: 3001 seconds
#
# Revision: 0
# Processed by: cddbd v1.5.2PL0 Copyright (c) Steve Scherf et al.
# Submitted via: CDex 1.51
#
DISCID=700bb708
DTITLE=Daniel Levin Quartet - Some Trees
DYEAR=2006
DGENRE=Jazz
TTITLE0=It's For You
TTITLE1=Out to Lunch
TTITLE2=Some Trees
TTITLE3=Sitting On His Hands
TTITLE4=Zolowski
TTITLE5=Wild Palms
TTITLE6=Wickets
TTITLE7=Morning Song
EXTD=YEAR: 2006
EXTT0=
EXTT1=
EXTT2=
EXTT3=
EXTT4=
EXTT5=
EXTT6=
EXTT7=
PLAYORDER=
